<?xml version="1.0" encoding="UTF-8"?>
<svg xmlns="http://www.w3.org/2000/svg" xmlns:xlink="http://www.w3.org/1999/xlink" width="40pt" height="40pt" viewBox="0 0 40 40" version="1.1">
<g id="surface18143286">
<path style=" stroke:none;fill-rule:nonzero;fill:rgb(88.235294%,18.823529%,42.352941%);fill-opacity:1;" d="M 20 40 C 8.953125 40 0 31.046875 0 20 C 0 8.953125 8.953125 0 20 0 C 31.046875 0 40 8.953125 40 20 C 40 31.046875 31.046875 40 20 40 Z M 20 40 "/>
<path style=" stroke:none;fill-rule:nonzero;fill:rgb(100%,100%,100%);fill-opacity:1;" d="M 14.816406 7.328125 C 10.6875 7.328125 7.328125 10.6875 7.328125 14.816406 L 7.328125 25.183594 C 7.328125 29.3125 10.6875 32.671875 14.816406 32.671875 L 25.183594 32.671875 C 29.3125 32.671875 32.671875 29.3125 32.671875 25.183594 L 32.671875 14.816406 C 32.671875 10.6875 29.3125 7.328125 25.183594 7.328125 Z M 14.816406 8.480469 L 25.183594 8.480469 C 28.691406 8.480469 31.519531 11.308594 31.519531 14.816406 L 31.519531 25.183594 C 31.519531 28.691406 28.691406 31.519531 25.183594 31.519531 L 14.816406 31.519531 C 11.308594 31.519531 8.480469 28.691406 8.480469 25.183594 L 8.480469 14.816406 C 8.480469 11.308594 11.308594 8.480469 14.816406 8.480469 Z M 26.910156 11.9375 C 26.277344 11.9375 25.761719 12.453125 25.761719 13.089844 C 25.761719 13.722656 26.277344 14.238281 26.910156 14.238281 C 27.546875 14.238281 28.0625 13.722656 28.0625 13.089844 C 28.0625 12.453125 27.546875 11.9375 26.910156 11.9375 Z M 20 13.664062 C 16.507812 13.664062 13.664062 16.507812 13.664062 20 C 13.664062 23.492188 16.507812 26.335938 20 26.335938 C 23.492188 26.335938 26.335938 23.492188 26.335938 20 C 26.335938 16.507812 23.492188 13.664062 20 13.664062 Z M 20 14.816406 C 22.871094 14.816406 25.183594 17.128906 25.183594 20 C 25.183594 22.871094 22.871094 25.183594 20 25.183594 C 17.128906 25.183594 14.816406 22.871094 14.816406 20 C 14.816406 17.128906 17.128906 14.816406 20 14.816406 Z M 20 14.816406 "/>
</g>
</svg>
