<?xml version="1.0" encoding="UTF-8"?>
<svg xmlns="http://www.w3.org/2000/svg" xmlns:xlink="http://www.w3.org/1999/xlink" width="40pt" height="40pt" viewBox="0 0 40 40" version="1.1">
<g id="surface18234945">
<path style=" stroke:none;fill-rule:nonzero;fill:rgb(1.568627%,13.333333%,43.921569%);fill-opacity:1;" d="M 20 40 C 8.953125 40 0 31.046875 0 20 C 0 8.953125 8.953125 0 20 0 C 31.046875 0 40 8.953125 40 20 C 40 31.046875 31.046875 40 20 40 Z M 20 40 "/>
<path style=" stroke:none;fill-rule:nonzero;fill:rgb(1.568627%,13.333333%,43.921569%);fill-opacity:1;" d="M 31.550781 28.339844 C 31.550781 30.113281 30.113281 31.550781 28.339844 31.550781 L 11.660156 31.550781 C 9.886719 31.550781 8.449219 30.113281 8.449219 28.339844 L 8.449219 11.660156 C 8.449219 9.886719 9.886719 8.449219 11.660156 8.449219 L 28.339844 8.449219 C 30.113281 8.449219 31.550781 9.886719 31.550781 11.660156 Z M 31.550781 28.339844 "/>
<path style=" stroke:none;fill-rule:nonzero;fill:rgb(100%,100%,100%);fill-opacity:1;" d="M 12.300781 16.792969 L 15.507812 16.792969 L 15.507812 27.699219 L 12.300781 27.699219 Z M 13.894531 15.507812 L 13.875 15.507812 C 12.917969 15.507812 12.300781 14.792969 12.300781 13.902344 C 12.300781 12.992188 12.9375 12.300781 13.914062 12.300781 C 14.890625 12.300781 15.492188 12.992188 15.507812 13.902344 C 15.507812 14.792969 14.890625 15.507812 13.894531 15.507812 Z M 27.699219 27.699219 L 24.492188 27.699219 L 24.492188 21.863281 C 24.492188 20.449219 23.707031 19.488281 22.445312 19.488281 C 21.480469 19.488281 20.960938 20.136719 20.707031 20.765625 C 20.613281 20.988281 20.640625 21.609375 20.640625 21.925781 L 20.640625 27.699219 L 17.433594 27.699219 L 17.433594 16.792969 L 20.640625 16.792969 L 20.640625 18.46875 C 21.105469 17.753906 21.828125 16.792969 23.683594 16.792969 C 25.976562 16.792969 27.699219 18.234375 27.699219 21.460938 Z M 27.699219 27.699219 "/>
</g>
</svg>
