<?xml version="1.0" encoding="UTF-8" standalone="no"?>
<svg
   xmlns:dc="http://purl.org/dc/elements/1.1/"
   xmlns:cc="http://creativecommons.org/ns#"
   xmlns:rdf="http://www.w3.org/1999/02/22-rdf-syntax-ns#"
   xmlns:svg="http://www.w3.org/2000/svg"
   xmlns="http://www.w3.org/2000/svg"
   xmlns:sodipodi="http://sodipodi.sourceforge.net/DTD/sodipodi-0.dtd"
   xmlns:inkscape="http://www.inkscape.org/namespaces/inkscape"
   viewBox="0 0 48 48"
   width="48px"
   height="48px"
   version="1.1"
   id="svg15"
   sodipodi:docname="github2.svg"
   inkscape:version="1.0 (6e3e5246a0, 2020-05-07)">
  <metadata
     id="metadata21">
    <rdf:RDF>
      <cc:Work
         rdf:about="">
        <dc:format>image/svg+xml</dc:format>
        <dc:type
           rdf:resource="http://purl.org/dc/dcmitype/StillImage" />
        <dc:title></dc:title>
      </cc:Work>
    </rdf:RDF>
  </metadata>
  <defs
     id="defs19" />
  <sodipodi:namedview
     inkscape:document-rotation="0"
     pagecolor="#ffffff"
     bordercolor="#666666"
     borderopacity="1"
     objecttolerance="10"
     gridtolerance="10"
     guidetolerance="10"
     inkscape:pageopacity="0"
     inkscape:pageshadow="2"
     inkscape:window-width="1920"
     inkscape:window-height="1016"
     id="namedview17"
     showgrid="false"
     inkscape:zoom="8.6857444"
     inkscape:cx="-12.165182"
     inkscape:cy="25.408843"
     inkscape:window-x="0"
     inkscape:window-y="27"
     inkscape:window-maximized="1"
     inkscape:current-layer="svg15" />
  <linearGradient
     id="rL2wppHyxHVbobwndsT6Ca"
     x1="4"
     x2="44"
     y1="23.508"
     y2="23.508"
     gradientUnits="userSpaceOnUse">
    <stop
       offset="0"
       stop-color="#4c4c4c"
       id="stop2" />
    <stop
       offset="1"
       stop-color="#343434"
       id="stop4" />
  </linearGradient>
  <path
     d="M30.01,41.996L30,36.198c0-0.939-0.22-1.856-0.642-2.687c5.641-1.133,8.386-4.468,8.386-10.177 c0-2.255-0.665-4.246-1.976-5.92c0.1-0.317,0.174-0.645,0.22-0.981c0.188-1.369-0.023-2.264-0.193-2.984l-0.027-0.116 c-0.186-0.796-0.409-1.364-0.418-1.388l-0.111-0.282l-0.111-0.282l-0.302-0.032l-0.303-0.032c0,0-0.199-0.021-0.501-0.021 c-0.419,0-1.04,0.042-1.627,0.241l-0.196,0.066c-0.74,0.249-1.439,0.485-2.417,1.069c-0.286,0.171-0.599,0.366-0.934,0.584 C27.334,12.881,25.705,12.69,24,12.69c-1.722,0-3.365,0.192-4.889,0.571c-0.339-0.22-0.654-0.417-0.942-0.589 c-0.978-0.584-1.677-0.819-2.417-1.069l-0.196-0.066c-0.585-0.199-1.207-0.241-1.626-0.241c-0.302,0-0.501,0.021-0.501,0.021 l-0.302,0.032l-0.3,0.031l-0.112,0.281l-0.113,0.283c-0.01,0.026-0.233,0.594-0.419,1.391l-0.027,0.115 c-0.17,0.719-0.381,1.615-0.193,2.983c0.048,0.346,0.125,0.685,0.23,1.011c-1.285,1.666-1.936,3.646-1.936,5.89 c0,5.695,2.748,9.028,8.397,10.17c-0.194,0.388-0.345,0.798-0.452,1.224c-0.197,0.067-0.378,0.112-0.538,0.137 c-0.238,0.036-0.487,0.054-0.739,0.054c-0.686,0-1.225-0.134-1.435-0.259c-0.313-0.186-0.872-0.727-1.414-1.518 c-0.463-0.675-1.185-1.558-1.992-1.927c-0.698-0.319-1.437-0.502-2.029-0.502c-0.138,0-0.265,0.01-0.376,0.028 c-0.517,0.082-0.949,0.366-1.184,0.78c-0.203,0.357-0.235,0.773-0.088,1.141c0.219,0.548,0.851,0.985,1.343,1.255 c0.242,0.133,0.765,0.619,1.07,1.109c0.229,0.368,0.335,0.63,0.482,0.992c0.087,0.215,0.183,0.449,0.313,0.732 c0.47,1.022,1.937,1.924,2.103,2.023c0.806,0.483,2.161,0.638,3.157,0.683l0.123,0.003c0,0,0.001,0,0.001,0 c0.24,0,0.57-0.023,1.004-0.071v2.613c0.002,0.529-0.537,0.649-1.25,0.638l0.547,0.184C19.395,43.572,21.645,44,24,44 c2.355,0,4.605-0.428,6.703-1.176l0.703-0.262C30.695,42.538,30.016,42.422,30.01,41.996z"
     opacity=".05"
     id="path9" />
  <path
     d="M30.781,42.797c-0.406,0.047-1.281-0.109-1.281-0.795v-5.804c0-1.094-0.328-2.151-0.936-3.052 c5.915-0.957,8.679-4.093,8.679-9.812c0-2.237-0.686-4.194-2.039-5.822c0.137-0.365,0.233-0.75,0.288-1.147 c0.175-1.276-0.016-2.086-0.184-2.801l-0.027-0.116c-0.178-0.761-0.388-1.297-0.397-1.319l-0.111-0.282l-0.303-0.032 c0,0-0.178-0.019-0.449-0.019c-0.381,0-0.944,0.037-1.466,0.215l-0.196,0.066c-0.714,0.241-1.389,0.468-2.321,1.024 c-0.332,0.198-0.702,0.431-1.101,0.694C27.404,13.394,25.745,13.19,24,13.19c-1.762,0-3.435,0.205-4.979,0.61 c-0.403-0.265-0.775-0.499-1.109-0.699c-0.932-0.556-1.607-0.784-2.321-1.024l-0.196-0.066c-0.521-0.177-1.085-0.215-1.466-0.215 c-0.271,0-0.449,0.019-0.449,0.019l-0.302,0.032l-0.113,0.283c-0.009,0.022-0.219,0.558-0.397,1.319l-0.027,0.116 c-0.169,0.715-0.36,1.524-0.184,2.8c0.056,0.407,0.156,0.801,0.298,1.174c-1.327,1.62-1.999,3.567-1.999,5.795 c0,5.703,2.766,8.838,8.686,9.806c-0.395,0.59-0.671,1.255-0.813,1.964c-0.33,0.13-0.629,0.216-0.891,0.256 c-0.263,0.04-0.537,0.06-0.814,0.06c-0.69,0-1.353-0.129-1.69-0.329c-0.44-0.261-1.057-0.914-1.572-1.665 c-0.35-0.51-1.047-1.417-1.788-1.755c-0.635-0.29-1.298-0.457-1.821-0.457c-0.11,0-0.21,0.008-0.298,0.022 c-0.366,0.058-0.668,0.252-0.828,0.534c-0.128,0.224-0.149,0.483-0.059,0.708c0.179,0.448,0.842,0.85,1.119,1.002 c0.335,0.184,0.919,0.744,1.254,1.284c0.251,0.404,0.37,0.697,0.521,1.067c0.085,0.209,0.178,0.437,0.304,0.712 c0.331,0.719,1.353,1.472,1.905,1.803c0.754,0.452,2.154,0.578,2.922,0.612l0.111,0.002c0.299,0,0.8-0.045,1.495-0.135v3.177 c0,0.779-0.991,0.81-1.234,0.81c-0.031,0,0.503,0.184,0.503,0.184C19.731,43.64,21.822,44,24,44c2.178,0,4.269-0.36,6.231-1.003 C30.231,42.997,30.812,42.793,30.781,42.797z"
     opacity=".07"
     id="path11" />
  <path
     fill="#ffffff"
     d="m 37.517542,22.726157 c 0,-2.377943 -0.804054,-4.350298 -2.176703,-5.896475 0.149088,-0.33456 0.304347,-0.783384 0.381462,-1.347501 0.176851,-1.286767 -0.03187,-2.058826 -0.208725,-2.814415 C 35.336726,11.912177 35.128,11.381 35.128,11.381 c 0,0 -0.948002,-0.09677 -1.751028,0.177059 -0.803026,0.273824 -1.493978,0.482795 -2.490306,1.077795 -0.465776,0.277942 -0.934636,0.582647 -1.305817,0.829707 -1.586516,-0.440589 -3.331375,-0.66706 -5.166716,-0.66706 -1.851792,0 -3.612075,0.227501 -5.209901,0.671178 -0.37221,-0.248089 -0.844154,-0.554854 -1.313015,-0.834854 -0.996327,-0.595 -1.68728,-0.803972 -2.490306,-1.077795 -0.803026,-0.273824 -1.751028,-0.177059 -1.751028,-0.177059 0,0 -0.208725,0.531176 -0.385576,1.286766 -0.176851,0.755588 -0.385575,1.527648 -0.208725,2.814414 0.07918,0.57853 0.239571,1.03559 0.392773,1.372207 -1.346945,1.536914 -2.136604,3.496915 -2.136604,5.87177 0,6.158976 3.32315,8.970302 9.378233,9.712509 -0.706375,0.747353 -1.180376,1.704707 -1.339748,2.770149 -0.397914,0.175001 -0.856492,0.339706 -1.297591,0.405589 -1.135135,0.171912 -2.335047,0 -2.912897,-0.342794 -0.577849,-0.342795 -1.26366,-1.114854 -1.777762,-1.866326 -0.433901,-0.634118 -1.060076,-1.370148 -1.627644,-1.62956 -0.749559,-0.342794 -1.478555,-0.471471 -1.8846947,-0.407647 -0.4071682,0.06486 -0.599442,0.364412 -0.5141012,0.579558 0.085341,0.214119 0.4925089,0.536325 0.9212699,0.77206 0.42876,0.235736 1.092978,0.879118 1.478555,1.500884 0.429788,0.693824 0.514101,1.094266 0.878083,1.886913 0.256023,0.557942 1.132052,1.254854 1.75617,1.629561 0.535694,0.322206 1.606052,0.505441 2.763809,0.557941 0.39997,0.01853 1.344888,-0.09882 2.141744,-0.212058 v 3.860297 c 0,0.657795 -0.601498,1.15809 -1.224588,1.042795 C 20.050442,43.658235 22.186018,44 24.414133,44 c 2.227086,0 4.362662,-0.341765 6.364572,-1.012942 -0.622063,0.114265 -1.223561,-0.38603 -1.223561,-1.043825 v -5.974711 c 0,-1.368089 -0.541863,-2.604414 -1.411722,-3.525738 6.010871,-0.722648 9.37412,-3.467062 9.37412,-9.716627 z m -26.224299,9.669274 c -0.158343,-0.08132 -0.243683,-0.231618 -0.190217,-0.337647 0.05346,-0.10603 0.226205,-0.125589 0.384547,-0.04427 0.158343,0.08132 0.243684,0.231618 0.190218,0.337647 -0.05346,0.10603 -0.226205,0.125589 -0.384548,0.04427 z m 1.246182,0.777206 c -0.08329,0.09059 -0.262192,0.06177 -0.399972,-0.06382 -0.137779,-0.125589 -0.181991,-0.301618 -0.09871,-0.392207 0.08328,-0.09059 0.262192,-0.06177 0.399971,0.06382 0.137779,0.125589 0.181992,0.301618 0.09871,0.392206 z m 0.775264,1.286766 c -0.104877,0.07411 -0.282756,0.0052 -0.396886,-0.154411 -0.11413,-0.15956 -0.121328,-0.350001 -0.01645,-0.424118 0.104877,-0.07412 0.282756,-0.0052 0.396886,0.154411 0.113102,0.159559 0.121328,0.350001 0.01645,0.424118 z m 1.113543,0.968677 c -0.07095,0.115295 -0.272473,0.120442 -0.449325,0.01236 -0.17685,-0.108088 -0.263219,-0.289265 -0.192274,-0.40456 0.07095,-0.115294 0.272474,-0.120441 0.449325,-0.01236 0.176851,0.108089 0.26322,0.289265 0.192274,0.40456 z m 1.052879,0.94809 c -0.219007,-0.02677 -0.381463,-0.163677 -0.362956,-0.305735 0.01748,-0.142059 0.209754,-0.234707 0.427733,-0.207942 0.219007,0.02677 0.381463,0.163676 0.362955,0.305735 -0.01747,0.14103 -0.208725,0.234706 -0.427732,0.207942 z m 1.697562,0.246029 c -0.233401,-0.01338 -0.415393,-0.147206 -0.40614,-0.2975 0.0093,-0.150294 0.205641,-0.2625 0.439042,-0.249118 0.233402,0.01338 0.415394,0.147206 0.406141,0.2975 -0.0093,0.151324 -0.205641,0.262501 -0.439043,0.249118 z m 1.60194,-0.160588 c -0.248825,0 -0.450353,-0.129706 -0.450353,-0.289265 0,-0.159559 0.201528,-0.289265 0.450353,-0.289265 0.248825,0 0.450352,0.129706 0.450352,0.289265 0,0.159559 -0.202556,0.289265 -0.450352,0.289265 z"
     id="path13"
     style="stroke-width:1.02881" />
</svg>
