<?xml version="1.0" encoding="UTF-8" standalone="no"?>
<svg
   xmlns:dc="http://purl.org/dc/elements/1.1/"
   xmlns:cc="http://creativecommons.org/ns#"
   xmlns:rdf="http://www.w3.org/1999/02/22-rdf-syntax-ns#"
   xmlns:svg="http://www.w3.org/2000/svg"
   xmlns="http://www.w3.org/2000/svg"
   xmlns:sodipodi="http://sodipodi.sourceforge.net/DTD/sodipodi-0.dtd"
   xmlns:inkscape="http://www.inkscape.org/namespaces/inkscape"
   inkscape:version="1.0 (6e3e5246a0, 2020-05-07)"
   sodipodi:docname="insta.svg"
   id="svg4"
   version="1.1"
   height="26px"
   width="26px"
   viewBox="0 0 26 26"
   fill="#000000">
  <metadata
     id="metadata10">
    <rdf:RDF>
      <cc:Work
         rdf:about="">
        <dc:format>image/svg+xml</dc:format>
        <dc:type
           rdf:resource="http://purl.org/dc/dcmitype/StillImage" />
        <dc:title></dc:title>
      </cc:Work>
    </rdf:RDF>
  </metadata>
  <defs
     id="defs8" />
  <sodipodi:namedview
     inkscape:current-layer="svg4"
     inkscape:window-maximized="1"
     inkscape:window-y="27"
     inkscape:window-x="0"
     inkscape:cy="15.103552"
     inkscape:cx="27.277957"
     inkscape:zoom="16.730769"
     showgrid="false"
     id="namedview6"
     inkscape:window-height="1016"
     inkscape:window-width="1920"
     inkscape:pageshadow="2"
     inkscape:pageopacity="0"
     guidetolerance="10"
     gridtolerance="10"
     objecttolerance="10"
     borderopacity="1"
     bordercolor="#666666"
     pagecolor="#ffffff" />
  <path
     style="fill:#ffffff;fill-opacity:1;stroke-width:0.684677"
     id="path2"
     d="m 9.5594244,3.718 c -2.766754,0 -5.023843,2.3877098 -5.023843,5.3145798 v 7.6802832 c 0,2.92687 2.257089,5.31458 5.023843,5.31458 h 7.2601286 c 2.766753,0 5.023842,-2.38771 5.023842,-5.31458 V 9.0325798 C 21.843395,6.1057098 19.586306,3.718 16.819553,3.718 Z m 0,1.4084187 h 7.2601286 c 2.046461,0 3.692472,1.7385168 3.692472,3.9061611 v 7.6802832 c 0,2.164894 -1.643411,3.906161 -3.692472,3.906161 H 9.5594244 c -2.046462,0 -3.692473,-1.738517 -3.692473,-3.906161 V 9.0325798 c 0,-2.1648937 1.643411,-3.9061611 3.692473,-3.9061611 z m 8.6227026,1.4084187 c -0.551271,0 -0.998528,0.4731406 -0.998528,1.0563139 0,0.5831734 0.447257,1.056314 0.998528,1.056314 0.55127,0 0.998527,-0.4731406 0.998527,-1.056314 0,-0.5831733 -0.447257,-1.0563139 -0.998527,-1.0563139 z M 13.189488,7.943256 c -2.566528,0 -4.6597956,2.214408 -4.6597956,4.929465 0,2.715058 2.0932676,4.929466 4.6597956,4.929466 2.566528,0 4.659796,-2.214408 4.659796,-4.929466 0,-2.715057 -2.093268,-4.929465 -4.659796,-4.929465 z m 0,1.408419 c 1.846236,0 3.328426,1.567966 3.328426,3.521046 0,1.953081 -1.48219,3.521047 -3.328426,3.521047 -1.846235,0 -3.3284256,-1.567966 -3.3284256,-3.521047 0,-1.95308 1.4821906,-3.521046 3.3284256,-3.521046 z" />
</svg>
