<?xml version="1.0" encoding="UTF-8" standalone="no"?>
<svg
   xmlns:dc="http://purl.org/dc/elements/1.1/"
   xmlns:cc="http://creativecommons.org/ns#"
   xmlns:rdf="http://www.w3.org/1999/02/22-rdf-syntax-ns#"
   xmlns:svg="http://www.w3.org/2000/svg"
   xmlns="http://www.w3.org/2000/svg"
   xmlns:sodipodi="http://sodipodi.sourceforge.net/DTD/sodipodi-0.dtd"
   xmlns:inkscape="http://www.inkscape.org/namespaces/inkscape"
   inkscape:version="1.0 (6e3e5246a0, 2020-05-07)"
   sodipodi:docname="icons8-linkedin(2).svg"
   id="svg30"
   version="1.1"
   height="64px"
   width="64px"
   viewBox="0 0 64 64">
  <metadata
     id="metadata36">
    <rdf:RDF>
      <cc:Work
         rdf:about="">
        <dc:format>image/svg+xml</dc:format>
        <dc:type
           rdf:resource="http://purl.org/dc/dcmitype/StillImage" />
      </cc:Work>
    </rdf:RDF>
  </metadata>
  <defs
     id="defs34" />
  <sodipodi:namedview
     inkscape:current-layer="svg30"
     inkscape:window-maximized="1"
     inkscape:window-y="27"
     inkscape:window-x="0"
     inkscape:cy="39.800546"
     inkscape:cx="25.357348"
     inkscape:zoom="9.6122328"
     showgrid="false"
     id="namedview32"
     inkscape:window-height="1016"
     inkscape:window-width="1920"
     inkscape:pageshadow="2"
     inkscape:pageopacity="0"
     guidetolerance="10"
     gridtolerance="10"
     objecttolerance="10"
     borderopacity="1"
     bordercolor="#666666"
     pagecolor="#ffffff" />
  <linearGradient
     spreadMethod="reflect"
     gradientUnits="userSpaceOnUse"
     y2="49.041"
     y1="24.858"
     x2="19"
     x1="19"
     id="SUJNhpmDQDF27Y3OfwgfYa">
    <stop
       id="stop2"
       stop-color="#6dc7ff"
       offset="0" />
    <stop
       id="stop4"
       stop-color="#e6abff"
       offset="1" />
  </linearGradient>
  <path
     style="fill:#ffffff"
     id="path7"
     clip-rule="evenodd"
     d="M22 48L22 26 16 26 16 48 22 48z"
     fill-rule="evenodd"
     fill="url(#SUJNhpmDQDF27Y3OfwgfYa)" />
  <linearGradient
     spreadMethod="reflect"
     gradientUnits="userSpaceOnUse"
     y2="23.341"
     y1="15.423"
     x2="19.382"
     x1="19.382"
     id="SUJNhpmDQDF27Y3OfwgfYb">
    <stop
       id="stop9"
       stop-color="#6dc7ff"
       offset="0" />
    <stop
       id="stop11"
       stop-color="#e6abff"
       offset="1" />
  </linearGradient>
  <path
     style="fill:#ffffff"
     id="path14"
     clip-rule="evenodd"
     d="M19.358,23c2.512,0,4.076-1.474,4.076-3.554 c-0.047-2.126-1.564-3.649-4.028-3.649c-2.465,0-4.076,1.475-4.076,3.601c0,2.08,1.563,3.602,3.981,3.602H19.358L19.358,23z"
     fill-rule="evenodd"
     fill="url(#SUJNhpmDQDF27Y3OfwgfYb)" />
  <linearGradient
     spreadMethod="reflect"
     gradientUnits="userSpaceOnUse"
     y2="49.525"
     y1="14.125"
     x2="37.386"
     x1="37.386"
     id="SUJNhpmDQDF27Y3OfwgfYc">
    <stop
       id="stop16"
       stop-color="#6dc7ff"
       offset="0" />
    <stop
       id="stop18"
       stop-color="#e6abff"
       offset="1" />
  </linearGradient>
  <path
     style="fill:#ffffff"
     id="path21"
     clip-rule="evenodd"
     d="M26.946,48H34V35.911c0-0.648,0.122-1.295,0.313-1.758 c0.52-1.295,1.877-2.635,3.867-2.635c2.607,0,3.821,1.988,3.821,4.901V48h6V35.588c0-6.657-3.085-9.498-7.826-9.498 c-3.886,0-5.124,1.91-6.072,3.91H34v-4h-7.054c0.095,2-0.175,22-0.175,22H26.946z"
     fill-rule="evenodd"
     fill="url(#SUJNhpmDQDF27Y3OfwgfYc)" />
  <linearGradient
     gradientTransform="translate(-4.3867816,0.75368175)"
     spreadMethod="reflect"
     gradientUnits="userSpaceOnUse"
     y2="57.5"
     y1="6.5"
     x2="32"
     x1="32"
     id="SUJNhpmDQDF27Y3OfwgfYd">
    <stop
       id="stop23"
       stop-color="#1a6dff"
       offset="0" />
    <stop
       id="stop25"
       stop-color="#c822ff"
       offset="1" />
  </linearGradient>
</svg>
