<?xml version="1.0" encoding="UTF-8"?>
<svg xmlns="http://www.w3.org/2000/svg" xmlns:xlink="http://www.w3.org/1999/xlink" width="40pt" height="40pt" viewBox="0 0 40 40" version="1.1">
<g id="surface17682375">
<path style=" stroke:none;fill-rule:nonzero;fill:rgb(1.568627%,13.333333%,43.921569%);fill-opacity:1;" d="M 20 40 C 8.953125 40 0 31.046875 0 20 C 0 8.953125 8.953125 0 20 0 C 31.046875 0 40 8.953125 40 20 C 40 31.046875 31.046875 40 20 40 Z M 20 40 "/>
<path style=" stroke:none;fill-rule:nonzero;fill:rgb(1.568627%,13.333333%,43.921569%);fill-opacity:1;" d="M 20 1.316406 C 9.679688 1.316406 1.316406 9.679688 1.316406 20 C 1.316406 30.320312 9.679688 38.683594 20 38.683594 C 30.320312 38.683594 38.683594 30.320312 38.683594 20 C 38.683594 9.679688 30.320312 1.316406 20 1.316406 Z M 20 1.316406 "/>
<path style=" stroke:none;fill-rule:nonzero;fill:rgb(100%,100%,100%);fill-opacity:1;" d="M 22.527344 24.953125 L 27.363281 24.953125 L 28.125 20.039062 L 22.527344 20.039062 L 22.527344 17.355469 C 22.527344 15.316406 23.195312 13.507812 25.101562 13.507812 L 28.171875 13.507812 L 28.171875 9.21875 C 27.632812 9.148438 26.492188 8.988281 24.339844 8.988281 C 19.839844 8.988281 17.207031 11.363281 17.207031 16.773438 L 17.207031 20.039062 L 12.582031 20.039062 L 12.582031 24.953125 L 17.207031 24.953125 L 17.207031 38.453125 C 18.121094 38.589844 19.046875 38.683594 20 38.683594 C 20.859375 38.683594 21.699219 38.605469 22.527344 38.492188 Z M 22.527344 24.953125 "/>
</g>
</svg>
