<?xml version="1.0" encoding="UTF-8"?>
<svg xmlns="http://www.w3.org/2000/svg" xmlns:xlink="http://www.w3.org/1999/xlink" width="40pt" height="40pt" viewBox="0 0 40 40" version="1.1">
<g id="surface18145537">
<path style=" stroke:none;fill-rule:nonzero;fill:rgb(1.568627%,13.333333%,43.921569%);fill-opacity:1;" d="M 20 40 C 8.953125 40 0 31.046875 0 20 C 0 8.953125 8.953125 0 20 0 C 31.046875 0 40 8.953125 40 20 C 40 31.046875 31.046875 40 20 40 Z M 20 40 "/>
<path style=" stroke:none;fill-rule:nonzero;fill:rgb(100%,100%,100%);fill-opacity:1;" d="M 14.917969 10.851562 C 9.863281 10.851562 5.765625 14.945312 5.765625 20 C 5.765625 25.054688 9.863281 29.148438 14.917969 29.148438 C 19.96875 29.148438 24.066406 25.054688 24.066406 20 C 24.066406 19.371094 23.996094 18.757812 23.878906 18.171875 L 23.828125 17.964844 L 14.917969 17.964844 L 14.917969 21.015625 L 21.015625 21.015625 C 20.53125 23.902344 17.9375 26.101562 14.917969 26.101562 C 11.546875 26.101562 8.816406 23.371094 8.816406 20 C 8.816406 16.628906 11.546875 13.898438 14.917969 13.898438 C 16.441406 13.898438 17.832031 14.464844 18.902344 15.390625 L 21.085938 13.25 C 19.460938 11.761719 17.296875 10.851562 14.917969 10.851562 Z M 29.148438 14.917969 L 29.148438 17.964844 L 26.101562 17.964844 L 26.101562 20 L 29.148438 20 L 29.148438 23.050781 L 31.183594 23.050781 L 31.183594 20 L 34.234375 20 L 34.234375 17.964844 L 31.183594 17.964844 L 31.183594 14.917969 Z M 29.148438 14.917969 "/>
</g>
</svg>
