<?xml version="1.0" encoding="UTF-8"?>
<svg xmlns="http://www.w3.org/2000/svg" xmlns:xlink="http://www.w3.org/1999/xlink" width="40pt" height="40pt" viewBox="0 0 40 40" version="1.1">
<g id="surface18119837">
<path style=" stroke:none;fill-rule:nonzero;fill:rgb(11.372549%,63.137255%,94.901961%);fill-opacity:1;" d="M 20 40 C 8.953125 40 0 31.046875 0 20 C 0 8.953125 8.953125 0 20 0 C 31.046875 0 40 8.953125 40 20 C 40 31.046875 31.046875 40 20 40 Z M 20 40 "/>
<path style=" stroke:none;fill-rule:nonzero;fill:rgb(100%,100%,100%);fill-opacity:1;" d="M 31.359375 12.953125 C 30.523438 13.324219 29.625 13.574219 28.683594 13.6875 C 29.644531 13.109375 30.382812 12.199219 30.730469 11.109375 C 29.832031 11.644531 28.835938 12.03125 27.773438 12.242188 C 26.921875 11.335938 25.710938 10.769531 24.371094 10.769531 C 21.792969 10.769531 19.707031 12.855469 19.707031 15.429688 C 19.707031 15.796875 19.75 16.152344 19.828125 16.492188 C 15.953125 16.296875 12.519531 14.441406 10.21875 11.621094 C 9.820312 12.308594 9.589844 13.109375 9.589844 13.964844 C 9.589844 15.582031 10.410156 17.007812 11.664062 17.84375 C 10.898438 17.820312 10.179688 17.609375 9.550781 17.261719 C 9.550781 17.28125 9.550781 17.300781 9.550781 17.320312 C 9.550781 19.578125 11.15625 21.464844 13.289062 21.890625 C 12.898438 21.996094 12.488281 22.054688 12.0625 22.054688 C 11.761719 22.054688 11.46875 22.023438 11.183594 21.972656 C 11.777344 23.824219 13.5 25.171875 15.539062 25.207031 C 13.945312 26.460938 11.933594 27.203125 9.75 27.203125 C 9.375 27.203125 9.003906 27.183594 8.636719 27.140625 C 10.703125 28.460938 13.152344 29.234375 15.785156 29.234375 C 24.359375 29.234375 29.046875 22.128906 29.046875 15.96875 C 29.046875 15.769531 29.042969 15.566406 29.035156 15.367188 C 29.945312 14.707031 30.734375 13.886719 31.359375 12.953125 Z M 31.359375 12.953125 "/>
</g>
</svg>
